<mxfile host="app.diagrams.net" agent="Mozilla/5.0 (Macintosh; Intel Mac OS X 10_15_7) AppleWebKit/537.36 (KHTML, like Gecko) Chrome/128.0.0.0 Safari/537.36" version="24.7.7">
  <diagram id="Ht1M8jgEwFfnCIfOTk4-" name="Page-1">
    <mxGraphModel dx="1466" dy="929" grid="1" gridSize="10" guides="1" tooltips="1" connect="1" arrows="1" fold="1" page="1" pageScale="1" pageWidth="1169" pageHeight="827" math="0" shadow="0">
      <root>
        <mxCell id="0" />
        <mxCell id="1" parent="0" />
        <mxCell id="nMllGIah5zcT56R1uGEE-1" value="AWS Cloud" style="points=[[0,0],[0.25,0],[0.5,0],[0.75,0],[1,0],[1,0.25],[1,0.5],[1,0.75],[1,1],[0.75,1],[0.5,1],[0.25,1],[0,1],[0,0.75],[0,0.5],[0,0.25]];outlineConnect=0;gradientColor=none;html=1;whiteSpace=wrap;fontSize=12;fontStyle=1;container=1;pointerEvents=0;collapsible=0;recursiveResize=0;shape=mxgraph.aws4.group;grIcon=mxgraph.aws4.group_aws_cloud_alt;strokeColor=#232F3E;fillColor=none;verticalAlign=top;align=left;spacingLeft=30;fontColor=#232F3E;dashed=0;" vertex="1" parent="1">
          <mxGeometry x="40" y="40" width="1080" height="960" as="geometry" />
        </mxCell>
        <mxCell id="nMllGIah5zcT56R1uGEE-2" value="Region - N. Virginia" style="points=[[0,0],[0.25,0],[0.5,0],[0.75,0],[1,0],[1,0.25],[1,0.5],[1,0.75],[1,1],[0.75,1],[0.5,1],[0.25,1],[0,1],[0,0.75],[0,0.5],[0,0.25]];outlineConnect=0;gradientColor=none;html=1;whiteSpace=wrap;fontSize=12;fontStyle=1;container=1;pointerEvents=0;collapsible=0;recursiveResize=0;shape=mxgraph.aws4.group;grIcon=mxgraph.aws4.group_region;strokeColor=#00A4A6;fillColor=none;verticalAlign=top;align=left;spacingLeft=30;fontColor=#147EBA;dashed=1;" vertex="1" parent="nMllGIah5zcT56R1uGEE-1">
          <mxGeometry x="40" y="40" width="560" height="880" as="geometry" />
        </mxCell>
        <mxCell id="nMllGIah5zcT56R1uGEE-12" value="Availability Zone 2 - us-east-1b" style="fillColor=none;strokeColor=#147EBA;dashed=1;verticalAlign=top;fontStyle=1;fontColor=#147EBA;whiteSpace=wrap;html=1;" vertex="1" parent="nMllGIah5zcT56R1uGEE-2">
          <mxGeometry x="40" y="560" width="480" height="240" as="geometry" />
        </mxCell>
        <mxCell id="nMllGIah5zcT56R1uGEE-13" value="VPC - DC - 192.168.0.0/16" style="points=[[0,0],[0.25,0],[0.5,0],[0.75,0],[1,0],[1,0.25],[1,0.5],[1,0.75],[1,1],[0.75,1],[0.5,1],[0.25,1],[0,1],[0,0.75],[0,0.5],[0,0.25]];outlineConnect=0;gradientColor=none;html=1;whiteSpace=wrap;fontSize=12;fontStyle=1;container=1;pointerEvents=0;collapsible=0;recursiveResize=0;shape=mxgraph.aws4.group;grIcon=mxgraph.aws4.group_vpc2;strokeColor=#8C4FFF;fillColor=none;verticalAlign=top;align=left;spacingLeft=30;fontColor=#FF9933;dashed=0;" vertex="1" parent="nMllGIah5zcT56R1uGEE-2">
          <mxGeometry x="80" y="520" width="400" height="320" as="geometry" />
        </mxCell>
        <mxCell id="nMllGIah5zcT56R1uGEE-15" value="Public subnet - 192.168.1.0/24" style="points=[[0,0],[0.25,0],[0.5,0],[0.75,0],[1,0],[1,0.25],[1,0.5],[1,0.75],[1,1],[0.75,1],[0.5,1],[0.25,1],[0,1],[0,0.75],[0,0.5],[0,0.25]];outlineConnect=0;gradientColor=none;html=1;whiteSpace=wrap;fontSize=12;fontStyle=1;container=1;pointerEvents=0;collapsible=0;recursiveResize=0;shape=mxgraph.aws4.group;grIcon=mxgraph.aws4.group_security_group;grStroke=0;strokeColor=#7AA116;fillColor=#F2F6E8;verticalAlign=top;align=left;spacingLeft=30;fontColor=#248814;dashed=0;" vertex="1" parent="nMllGIah5zcT56R1uGEE-13">
          <mxGeometry x="80" y="80" width="240" height="160" as="geometry" />
        </mxCell>
        <mxCell id="nMllGIah5zcT56R1uGEE-18" value="&amp;nbsp;AWS - EC2 Openswan Gateway&amp;nbsp;&lt;div&gt;192.168.1.x&lt;/div&gt;" style="sketch=0;outlineConnect=0;fontColor=#232F3E;gradientColor=none;fillColor=#ED7100;strokeColor=none;dashed=0;verticalLabelPosition=bottom;verticalAlign=top;align=center;html=1;fontSize=12;fontStyle=0;aspect=fixed;pointerEvents=1;shape=mxgraph.aws4.t2_instance;labelBackgroundColor=default;labelBorderColor=#FFD966;" vertex="1" parent="nMllGIah5zcT56R1uGEE-15">
          <mxGeometry x="90" y="35" width="60" height="60" as="geometry" />
        </mxCell>
        <mxCell id="nMllGIah5zcT56R1uGEE-19" value="Availability Zone 1 - us-east-1b" style="fillColor=none;strokeColor=#147EBA;dashed=1;verticalAlign=top;fontStyle=1;fontColor=#147EBA;whiteSpace=wrap;html=1;" vertex="1" parent="nMllGIah5zcT56R1uGEE-2">
          <mxGeometry x="40" y="80" width="480" height="240" as="geometry" />
        </mxCell>
        <mxCell id="nMllGIah5zcT56R1uGEE-3" value="VPC Shared Resource" style="fillColor=none;strokeColor=#5A6C86;dashed=1;verticalAlign=top;fontStyle=1;fontColor=#5A6C86;whiteSpace=wrap;html=1;" vertex="1" parent="nMllGIah5zcT56R1uGEE-1">
          <mxGeometry x="679" y="199" width="281" height="561" as="geometry" />
        </mxCell>
        <mxCell id="nMllGIah5zcT56R1uGEE-6" value="VPC - AWS - 10.10.0.0/16" style="points=[[0,0],[0.25,0],[0.5,0],[0.75,0],[1,0],[1,0.25],[1,0.5],[1,0.75],[1,1],[0.75,1],[0.5,1],[0.25,1],[0,1],[0,0.75],[0,0.5],[0,0.25]];outlineConnect=0;gradientColor=none;html=1;whiteSpace=wrap;fontSize=12;fontStyle=1;container=1;pointerEvents=0;collapsible=0;recursiveResize=0;shape=mxgraph.aws4.group;grIcon=mxgraph.aws4.group_vpc2;strokeColor=#8C4FFF;fillColor=none;verticalAlign=top;align=left;spacingLeft=30;fontColor=#FF9933;dashed=0;" vertex="1" parent="1">
          <mxGeometry x="160" y="119" width="400" height="320" as="geometry" />
        </mxCell>
        <mxCell id="nMllGIah5zcT56R1uGEE-11" value="Private subnet - 10.10.1.0/24" style="points=[[0,0],[0.25,0],[0.5,0],[0.75,0],[1,0],[1,0.25],[1,0.5],[1,0.75],[1,1],[0.75,1],[0.5,1],[0.25,1],[0,1],[0,0.75],[0,0.5],[0,0.25]];outlineConnect=0;gradientColor=none;html=1;whiteSpace=wrap;fontSize=12;fontStyle=1;container=1;pointerEvents=0;collapsible=0;recursiveResize=0;shape=mxgraph.aws4.group;grIcon=mxgraph.aws4.group_security_group;grStroke=0;strokeColor=#00A4A6;fillColor=#E6F6F7;verticalAlign=top;align=left;spacingLeft=30;fontColor=#147EBA;dashed=0;" vertex="1" parent="1">
          <mxGeometry x="240" y="199" width="240" height="160" as="geometry" />
        </mxCell>
        <mxCell id="nMllGIah5zcT56R1uGEE-17" value="&amp;nbsp;AWS - EC2 Private&amp;nbsp;&lt;div&gt;10.10.1.x&lt;/div&gt;" style="sketch=0;outlineConnect=0;fontColor=#232F3E;gradientColor=none;fillColor=#ED7100;strokeColor=none;dashed=0;verticalLabelPosition=bottom;verticalAlign=top;align=center;html=1;fontSize=12;fontStyle=0;aspect=fixed;pointerEvents=1;shape=mxgraph.aws4.t2_instance;labelBackgroundColor=default;labelBorderColor=#FFD966;" vertex="1" parent="nMllGIah5zcT56R1uGEE-11">
          <mxGeometry x="90" y="34" width="60" height="60" as="geometry" />
        </mxCell>
      </root>
    </mxGraphModel>
  </diagram>
</mxfile>
